PathFileType	4	(X/Y/Z)	/Users/itak/Documents/Research/Walk-IL/dataset/trc/00210_00009.trc
DataRate	CameraRate	NumFrames	NumMarkers	Units	OrigDataRate	OrigDataStartFrame	OrigNumFrames
100.000000	100.000000	4	53	mm	100.000000	398	637
Frame#	Time	RPSI			LPSI			L3			STRN			T10			C7			CLAV			RBAK			LBAK			LSHO			LUPA			LAEL			LAOL			LWTS			LWPS			LFRA			LIFD			LHPS			LHTS			RSHO			RUPA			RAEL			RAOL			RWTS			RWPS			RFRA			RIFD			RHTS			RHPS			RBHD			LFHD			RFHD			LBHD			LHIP			RHIP			RASI			LASI			LKNE			LTHI			LANK			LTIP			LTOE			LMT5			LHEE			RKNE			RTHI			RANK			RTIP			RTOE			RMT1			RMT5			RHEE			LMT1			
		X1	Y1	Z1	X2	Y2	Z2	X3	Y3	Z3	X4	Y4	Z4	X5	Y5	Z5	X6	Y6	Z6	X7	Y7	Z7	X8	Y8	Z8	X9	Y9	Z9	X10	Y10	Z10	X11	Y11	Z11	X12	Y12	Z12	X13	Y13	Z13	X14	Y14	Z14	X15	Y15	Z15	X16	Y16	Z16	X17	Y17	Z17	X18	Y18	Z18	X19	Y19	Z19	X20	Y20	Z20	X21	Y21	Z21	X22	Y22	Z22	X23	Y23	Z23	X24	Y24	Z24	X25	Y25	Z25	X26	Y26	Z26	X27	Y27	Z27	X28	Y28	Z28	X29	Y29	Z29	X30	Y30	Z30	X31	Y31	Z31	X32	Y32	Z32	X33	Y33	Z33	X34	Y34	Z34	X35	Y35	Z35	X36	Y36	Z36	X37	Y37	Z37	X38	Y38	Z38	X39	Y39	Z39	X40	Y40	Z40	X41	Y41	Z41	X42	Y42	Z42	X43	Y43	Z43	X44	Y44	Z44	X45	Y45	Z45	X46	Y46	Z46	X47	Y47	Z47	X48	Y48	Z48	X49	Y49	Z49	X50	Y50	Z50	X51	Y51	Z51	X52	Y52	Z52	X53	Y53	Z53	

399	3.98	32.7869873046875	1044.530395507812	-248.5775146484375	40.18161010742188	1050.808471679688	-368.4801330566406	39.06774139404297	1128.1298828125	-330.3379516601562	289.8736877441406	1311.39892578125	-329.19677734375	33.50429916381836	1257.252197265625	-331.2247314453125	103.0974578857422	1516.446044921875	-339.6617736816406	267.347900390625	1429.550415039062	-332.3938903808594	23.04204940795898	1381.902709960938	-265.0461120605469	85.60415649414062	1476.736694335938	-451.0631713867188	178.1145629882812	1477.447387695312	-501.5932006835938	164.8307342529297	1359.529907226562	-580.6096801757812	221.0794219970703	1157.667236328125	-609.0275268554688	148.4214935302734	1121.006225585938	-573.360595703125	386.826171875	993.704345703125	-511.2400207519531	389.1884460449219	964.5455322265625	-590.3282470703125	285.9331359863281	1069.358764648438	-608.083740234375	492.0716552734375	828.1201782226562	-496.9696350097656	445.2744750976562	897.1785278320312	-573.4188842773438	469.3109741210938	923.8966674804688	-515.0718994140625	158.2628784179688	1479.911376953125	-168.5622406005859	136.8488006591797	1416.4931640625	-101.6864471435547	117.6328125	1137.348022460938	-50.94419479370117	86.65945434570312	1127.91064453125	-139.9418334960938	274.6924133300781	937.2592163085938	-93.72115325927734	225.1175842285156	916.9998779296875	-29.11315536499023	150.2892913818359	1070.460571289062	-37.02756500244141	314.7970886230469	745.5606079101562	-96.87322235107422	328.1588745117188	821.6295166015625	-79.32157897949219	276.944091796875	815.3758544921875	-28.0267162322998	140.1825408935547	1664.493286132812	-289.1448364257812	338.8822631835938	1724.967651367188	-381.5955505371094	337.0847473144531	1724.528930664062	-281.6216735839844	186.2831726074219	1674.707885742188	-421.1600952148438	142.8397827148438	986.343505859375	-506.1340026855469	130.5487213134766	1008.645080566406	-138.3798370361328	225.4229278564453	1051.244750976562	-176.9124755859375	243.6533660888672	1027.905639648438	-457.1589660644531	189.5261077880859	502.5325927734375	-439.0111694335938	183.4544830322266	646.1526489257812	-476.2082214355469	117.6322708129883	33.20507049560547	-392.0838317871094	145.9417572021484	277.5350952148438	-425.7578125	331.20751953125	40.74747467041016	-330.2880249023438	245.1138305664062	32.86392593383789	-405.569091796875	55.04189682006836	43.28020858764648	-341.8639526367188	297.8307800292969	535.3917846679688	-150.9796447753906	231.5751647949219	798.9087524414062	-122.2514114379883	152.8468475341797	60.35167694091797	-147.5876159667969	295.5001220703125	414.7621765136719	-161.3101959228516	359.5125732421875	65.00325012207031	-178.8615875244141	306.8394470214844	55.66537094116211	-224.4915161132812	259.8018798828125	53.82913970947266	-116.0796356201172	94.60663604736328	63.21662139892578	-209.8545074462891	262.3541870117188	38.95074844360352	-289.7611694335938	
400	3.99	36.80475997924805	1044.46826171875	-248.9942932128906	44.58419036865234	1050.739013671875	-368.8477783203125	43.32880020141602	1128.235107421875	-330.6756896972656	294.5547485351562	1311.138793945312	-329.1833190917969	38.07443618774414	1257.325317382812	-331.4761047363281	108.0169525146484	1516.421997070312	-339.7840576171875	272.1802368164062	1429.33203125	-332.3815002441406	27.67006301879883	1382.020751953125	-265.2525329589844	90.61714935302734	1476.780029296875	-451.2166442871094	183.1846313476562	1477.335693359375	-501.6688232421875	169.7623138427734	1359.406372070312	-580.674560546875	225.6221008300781	1157.387939453125	-608.8201904296875	152.8172149658203	1120.905639648438	-573.3521728515625	390.8764343261719	993.5228271484375	-510.052978515625	393.5424499511719	964.2037963867188	-589.0723266601562	290.3955383300781	1069.059326171875	-607.4619140625	496.0393981933594	827.97705078125	-495.0280151367188	449.5633239746094	896.8733520507812	-571.8038330078125	473.3319396972656	923.6808471679688	-513.4164428710938	163.0053558349609	1479.769165039062	-168.6047515869141	141.4483795166016	1416.2705078125	-101.8155136108398	121.8217468261719	1137.010864257812	-51.7525634765625	91.29669952392578	1127.69482421875	-140.9049224853516	278.8655395507812	936.7523193359375	-93.71298217773438	228.9221038818359	916.6664428710938	-29.35569953918457	154.3555450439453	1070.12353515625	-37.69005584716797	318.6676635742188	744.925537109375	-96.12746429443359	332.0495300292969	820.9921264648438	-78.72916412353516	280.5440979003906	815.0162963867188	-27.68988037109375	145.0411987304688	1664.353637695312	-289.275634765625	343.9067687988281	1724.730102539062	-381.5093994140625	341.9765319824219	1724.306274414062	-281.5174255371094	191.3515472412109	1674.518432617188	-421.2493286132812	147.3495788574219	986.213623046875	-506.421142578125	134.7531890869141	1008.581176757812	-138.6820068359375	229.6386871337891	1051.086547851562	-177.0800628662109	248.1583709716797	1027.702392578125	-457.3308410644531	191.4060821533203	502.251220703125	-438.9487915039062	186.3677673339844	645.902099609375	-476.2222900390625	117.6531982421875	33.24334335327148	-392.0188598632812	146.6719818115234	277.5471496582031	-425.7960510253906	331.3087768554688	40.67645263671875	-330.3174133300781	245.143798828125	32.81170272827148	-405.6565856933594	55.05590438842773	43.44628143310547	-341.7516479492188	304.2525329589844	536.307373046875	-151.47119140625	236.1587371826172	799.2579956054688	-122.3618621826172	174.2761535644531	56.74038314819336	-148.6052703857422	305.285400390625	415.5506286621094	-161.9765930175781	380.7579956054688	67.12400054931641	-181.1870727539062	328.0354614257812	56.51678466796875	-226.3667144775391	281.7843017578125	53.36277008056641	-117.734748840332	115.8088531494141	58.10033798217773	-210.4324645996094	262.40869140625	38.94522857666016	-289.8128051757812	
401	4	40.83009338378906	1044.372192382812	-249.4178161621094	49.01160049438477	1050.64013671875	-369.2183837890625	47.62602615356445	1128.327880859375	-330.9968566894531	299.2301025390625	1310.8662109375	-329.1261596679688	42.65786743164062	1257.372680664062	-331.6828002929688	112.9234390258789	1516.3740234375	-339.8427124023438	277.0047302246094	1429.0966796875	-332.3197631835938	32.30874633789062	1382.10400390625	-265.3827819824219	95.60961151123047	1476.804077148438	-451.3054504394531	188.2316741943359	1477.206420898438	-501.6907348632812	174.6398468017578	1359.260131835938	-580.6788940429688	230.0431213378906	1157.062255859375	-608.5597534179688	157.0988616943359	1120.809936523438	-573.2588500976562	394.718017578125	993.1332397460938	-508.9079895019531	397.6374206542969	963.6825561523438	-587.8674926757812	294.6730041503906	1068.661987304688	-606.8180541992188	499.6344604492188	827.5399780273438	-493.2217102050781	453.5216064453125	896.31591796875	-570.272216796875	477.0599975585938	923.1652221679688	-511.8378601074219	167.7501220703125	1479.598388671875	-168.5896911621094	146.080078125	1416.022216796875	-101.8788681030273	126.0474090576172	1136.652954101562	-52.50294494628906	95.97074890136719	1127.45068359375	-141.8050689697266	282.9776000976562	936.142822265625	-93.61608123779297	232.641357421875	916.2788696289062	-29.50203132629395	158.4227447509766	1069.754516601562	-38.29528427124023	322.3815612792969	744.159423828125	-95.15147399902344	335.8269653320312	820.229736328125	-77.96289825439453	284.0174865722656	814.5965576171875	-27.18483924865723	149.8978271484375	1664.20703125	-289.3621826171875	348.9345397949219	1724.459716796875	-381.4005737304688	346.874755859375	1724.062866210938	-281.3901977539062	196.4118194580078	1674.295654296875	-421.2953491210938	151.8867645263672	986.078125	-506.6976623535156	138.9512634277344	1008.460693359375	-138.9786834716797	233.8468627929688	1050.905151367188	-177.2147674560547	252.7171173095703	1027.486206054688	-457.4581298828125	193.2854614257812	502.0015869140625	-438.876953125	189.2843170166016	645.66552734375	-476.1965637207031	117.6772842407227	33.28337097167969	-391.9502563476562	147.4124450683594	277.5737915039062	-425.833740234375	331.4036254882812	40.59550857543945	-330.3467407226562	245.1642761230469	32.76529312133789	-405.7378234863281	55.05466461181641	43.6231689453125	-341.6376342773438	310.5113220214844	537.1597290039062	-151.8841705322266	240.6625518798828	799.547119140625	-122.4245147705078	195.5732421875	53.60681533813477	-149.7367858886719	314.9131164550781	416.363525390625	-162.6329498291016	401.6590881347656	69.32010650634766	-183.9369201660156	348.8404235839844	57.60659408569336	-228.5694732666016	303.5439758300781	53.08863830566406	-119.6793823242188	136.766845703125	53.59230804443359	-211.0625152587891	262.4437866210938	38.91113662719727	-289.8421630859375	
402	4.01	44.90514755249023	1044.231323242188	-249.8361053466797	53.47414398193359	1050.50439453125	-369.583740234375	51.9705924987793	1128.397827148438	-331.2968139648438	303.9014892578125	1310.578125	-329.0266723632812	47.24614334106445	1257.39013671875	-331.8531188964844	117.81591796875	1516.296630859375	-339.8421020507812	281.8208923339844	1428.84228515625	-332.2085876464844	36.95767974853516	1382.14306640625	-265.4459533691406	100.5808868408203	1476.803466796875	-451.3336791992188	193.2566833496094	1477.0546875	-501.6614379882812	179.4624176025391	1359.085327148438	-580.6248779296875	234.3537445068359	1156.686645507812	-608.2477416992188	161.2722778320312	1120.709838867188	-573.0823974609375	398.3584289550781	992.53369140625	-507.8132019042969	401.4815979003906	962.9761962890625	-586.7240600585938	298.7712707519531	1068.158569335938	-606.1572265625	502.8572082519531	826.7939453125	-491.5458374023438	457.1554260253906	895.4984741210938	-568.8348999023438	480.5111694335938	922.3535766601562	-510.3458862304688	172.4926300048828	1479.390991210938	-168.5198364257812	150.7324676513672	1415.742797851562	-101.88134765625	130.3085632324219	1136.274780273438	-53.17262268066406	100.6564102172852	1127.177856445312	-142.6197967529297	287.0335998535156	935.4364624023438	-93.42884063720703	236.2874908447266	915.8334350585938	-29.54527282714844	162.4966888427734	1069.354248046875	-38.82281494140625	325.9397888183594	743.2716064453125	-93.98722839355469	339.4972839355469	819.3529663085938	-77.05044555664062	287.3785400390625	814.1135864257812	-26.53245735168457	154.7560424804688	1664.045532226562	-289.3969116210938	353.9586791992188	1724.157592773438	-381.2647399902344	351.7752990722656	1723.796508789062	-281.2353210449219	201.4572296142578	1674.039184570312	-421.2910766601562	156.4497833251953	985.9362182617188	-506.9619750976562	143.1368408203125	1008.282775878906	-139.2684783935547	238.06201171875	1050.694213867188	-177.3157653808594	257.32861328125	1027.255004882812	-457.5424194335938	195.1581268310547	501.7817993164062	-438.8116760253906	192.2050933837891	645.44482421875	-476.1427612304688	117.7037963867188	33.32426452636719	-391.8796997070312	148.1700592041016	277.6115417480469	-425.8753967285156	331.4894714355469	40.5043830871582	-330.3741455078125	245.1763916015625	32.7245979309082	-405.8133850097656	55.04546737670898	43.80648040771484	-341.5265197753906	316.6185302734375	537.938232421875	-152.2347564697266	245.0961151123047	799.7584838867188	-122.427131652832	216.6727447509766	50.93962097167969	-150.9658660888672	324.3587951660156	417.1976318359375	-163.2859802246094	422.1942443847656	71.57460021972656	-186.9974670410156	369.2388000488281	58.90128326416016	-231.0191040039062	325.0148620605469	53.00714111328125	-121.8510894775391	157.4245147705078	49.67473220825195	-211.7600860595703	262.4581298828125	38.84761047363281	-289.8493347167969	
